<svg xmlns="http://www.w3.org/2000/svg" width="150" height="50" viewBox="0,0,150,50"><path fill="#e57f7f" d="M19.62 26.76L19.62 26.77L19.73 26.88Q21.47 26.99 23.30 26.99L23.32 27.01L23.34 27.02Q25.05 26.94 26.87 26.79L26.87 26.79L26.96 26.87Q26.83 27.50 26.83 28.23L26.90 28.30L26.83 29.56L26.80 29.53Q24.45 29.54 19.69 29.66L19.66 29.62L19.67 29.64Q19.65 35.56 18.51 40.55L18.56 40.60L18.64 40.67Q16.36 41.28 14.87 42.08L14.86 42.07L14.83 42.04Q17.17 35.24 16.90 28.13L16.93 28.15L16.93 28.15Q16.62 20.95 13.96 14.29L14.05 14.38L13.98 14.31Q17.64 16.83 22.40 17.06L22.40 17.06L22.35 17.01Q27.14 17.31 31.29 15.56L31.31 15.58L31.20 15.47Q30.99 16.36 30.76 17.16L30.75 17.15L30.13 18.62L30.31 18.80Q27.51 19.81 24.54 19.96L24.59 20.02L24.61 20.04Q21.55 20.05 18.69 19.33L18.85 19.49L18.75 19.39Q19.53 22.87 19.72 26.87ZM31.92 14.85L31.78 14.71L31.85 14.79Q27.25 16.92 22.38 16.62L22.34 16.58L22.40 16.65Q17.12 16.39 13.39 13.53L13.29 13.44L13.25 13.39Q16.29 20.50 16.59 28.12L16.43 27.96L16.45 27.98Q16.79 35.93 14.28 42.71L14.33 42.76L14.41 42.84Q14.91 42.27 16.28 41.63L16.33 41.68L16.29 41.63Q16.15 42.45 15.58 43.97L15.65 44.04L15.57 43.96Q17.92 42.92 20.81 42.43L20.82 42.43L20.80 42.41Q21.46 37.59 21.65 31.88L21.70 31.93L21.64 31.87Q23.45 31.85 25.27 31.85L25.30 31.88L25.26 31.84Q27.13 31.91 28.95 32.10L28.83 31.98L28.84 31.99Q28.68 30.99 28.68 30.08L28.79 30.19L28.82 28.31L28.66 28.16Q28.03 28.40 27.19 28.40L27.15 28.36L27.15 28.36Q27.19 27.52 27.27 26.49L27.30 26.53L27.20 26.43Q25.86 26.66 24.46 26.66L24.50 26.70L24.35 26.55Q23.01 26.61 21.64 26.58L21.67 26.61L21.51 24.31L21.66 24.47Q21.53 23.28 21.42 22.21L21.37 22.16L21.43 22.22Q22.38 22.26 23.37 22.26L23.42 22.31L23.43 22.32Q28.22 22.35 31.84 20.44L31.85 20.45L31.85 20.46Q32.32 18.61 33.23 15.98L33.13 15.87L33.28 16.03Q31.88 16.76 31.08 17.10L31.15 17.17L31.06 17.08Q31.31 16.31 31.81 14.75Z"/><path fill="#8cd147" d="M104.30 40.31L104.37 40.37L104.37 40.38Q101.37 36.46 98.75 27.82L98.86 27.94L98.83 27.90Q98.05 25.64 97.25 23.51L97.37 23.63L94.38 32.29L94.39 32.30Q92.68 37.32 90.28 40.56L90.19 40.47L90.24 40.52Q89.31 40.50 87.67 40.66L87.77 40.75L87.80 40.78Q87.92 39.61 87.92 38.35L87.82 38.25L87.80 38.23Q87.91 32.32 85.16 26.19L85.05 26.07L85.19 26.22Q82.09 19.35 76.23 14.36L76.21 14.34L76.18 14.31Q78.20 14.89 80.56 15.43L80.54 15.40L80.56 15.42Q89.26 23.89 90.55 34.86L90.55 34.85L90.52 34.82Q92.21 31.57 93.66 26.20L93.65 26.19L93.61 26.15Q95.76 18.82 96.25 17.41L96.08 17.24L98.47 17.38L98.39 17.30Q99.06 19.31 99.71 21.63L99.77 21.68L101.05 26.17L101.05 26.16Q102.64 31.64 104.05 34.87L103.94 34.76L103.93 34.76Q105.60 23.14 113.52 15.80L113.64 15.91L113.52 15.79Q115.15 15.56 118.12 14.91L118.14 14.93L117.99 14.78Q112.63 19.05 109.58 25.18L109.64 25.24L109.61 25.21Q106.57 31.49 106.57 38.27L106.61 38.31L106.49 38.19Q106.51 39.31 106.58 40.45L106.63 40.50L105.49 40.39L105.61 40.50Q104.90 40.34 104.33 40.34ZM110.65 43.30L110.52 43.18L110.64 43.29Q109.28 39.61 109.39 35.72L109.46 35.80L109.56 35.90Q109.79 24.25 119.16 15.99L119.28 16.11L119.14 15.97Q118.33 16.34 116.39 16.88L116.21 16.70L116.24 16.72Q117.33 16.03 119.23 14.24L119.17 14.18L119.12 14.13Q116.49 14.92 113.56 15.41L113.51 15.37L113.61 15.46Q106.01 22.49 104.11 31.97L104.21 32.07L104.14 31.99Q103.54 30.33 100.69 18.87L100.74 18.93L100.64 18.83Q100.24 18.92 99.29 18.92L99.35 18.99L99.12 17.99L99.05 17.92Q98.88 17.33 98.65 16.83L98.65 16.84L95.82 16.90L95.90 16.98Q94.88 19.24 93.61 24.36L93.63 24.38L93.74 24.49Q92.47 29.61 91.48 32.09L91.44 32.05L91.33 31.94Q89.97 24.26 84.41 17.94L84.28 17.81L84.35 17.88Q83.77 17.71 82.81 17.52L82.92 17.63L82.84 17.55Q82.22 16.81 80.65 15.17L80.63 15.14L80.55 15.06Q77.14 14.25 74.97 13.45L75.02 13.50L74.93 13.41Q80.76 18.25 84.04 24.45L83.98 24.40L83.99 24.41Q87.36 30.94 87.36 37.94L87.53 38.12L87.40 37.98Q87.46 39.60 87.27 41.20L87.26 41.19L87.30 41.24Q87.40 41.10 87.86 41.01L87.95 41.10L88.03 41.18Q88.30 40.90 88.53 40.90L88.67 41.04L88.62 42.02L88.68 42.08Q88.68 42.54 88.76 43.07L88.71 43.02L88.66 42.98Q89.75 42.85 92.04 42.70L92.06 42.72L92.18 42.84Q95.67 37.31 98.41 27.90L98.53 28.02L98.42 27.91Q101.18 36.69 104.15 40.65L104.16 40.66L104.14 40.64Q104.73 40.77 105.57 40.89L105.58 40.90L105.55 40.87Q106.32 41.82 107.38 42.89L107.52 43.03L107.51 43.02Q108.30 43.08 110.70 43.35Z"/><path fill="#76df76" d="M49.28 39.77L49.38 39.88L49.45 39.94Q47.38 39.78 45.37 39.97L45.41 40.02L45.43 40.04Q45.96 34.67 45.96 29.83L46.03 29.90L45.95 29.82Q46.03 24.99 45.38 19.77L45.51 19.90L45.49 19.88Q40.79 19.37 37.60 17.70L37.60 17.70L36.82 15.89L37.00 16.07Q36.67 15.44 36.06 14.22L36.01 14.17L36.19 14.35Q41.24 17.00 47.26 17.19L47.22 17.15L47.19 17.13Q52.95 17.17 58.39 15.12L58.54 15.27L58.54 15.27Q57.80 16.65 57.15 18.48L57.20 18.53L57.10 18.43Q53.46 19.70 49.20 19.89L49.27 19.97L49.19 19.89Q49.14 25.06 49.14 30.01L48.95 29.81L48.95 29.82Q48.99 34.81 49.30 39.79ZM59.17 14.52L59.14 14.49L59.20 14.56Q53.31 16.77 47.10 16.58L47.21 16.69L47.22 16.70Q40.43 16.38 35.33 13.41L35.46 13.55L35.36 13.45Q36.19 14.81 37.49 18.08L37.49 18.08L37.43 18.03Q38.07 18.33 39.33 18.90L39.26 18.83L39.37 18.94Q39.58 19.60 39.92 21.13L40.02 21.22L39.91 21.12Q42.33 22.09 45.38 22.32L45.21 22.15L45.38 22.32Q45.71 25.97 45.71 29.73L45.72 29.75L45.69 29.71Q45.73 35.12 44.93 40.49L44.78 40.34L44.91 40.47Q46.57 40.34 47.10 40.34L47.02 40.25L47.05 40.28Q46.99 40.53 46.94 41.20L46.92 41.18L46.99 41.25Q47.04 42.03 47.04 42.37L46.90 42.23L47.00 42.33Q48.16 42.23 49.68 42.31L49.63 42.26L49.67 42.30Q50.63 42.38 52.46 42.54L52.43 42.51L52.31 42.38Q51.22 37.61 51.11 32.43L51.01 32.33L51.12 32.44Q50.86 27.00 51.39 22.09L51.41 22.11L51.47 22.17Q55.43 21.63 58.59 20.42L58.55 20.38L58.58 20.41Q59.20 17.95 60.23 15.89L60.33 15.99L60.21 15.87Q58.93 16.61 58.13 16.91L58.23 17.01L58.17 16.95Q58.60 15.67 59.17 14.52Z"/><path fill="#dddd45" d="M68.04 33.39L67.99 33.34L68.00 33.35Q67.78 36.10 66.60 40.75L66.67 40.81L66.64 40.79Q64.87 41.34 63.27 42.14L63.14 42.00L63.26 42.12Q65.84 35.08 65.58 27.66L65.61 27.69L65.67 27.75Q65.33 20.29 62.25 13.55L62.13 13.43L62.24 13.55Q64.18 14.80 66.04 15.37L66.06 15.38L66.12 15.45Q68.23 22.39 68.23 29.05L68.24 29.06L68.19 29.01Q68.26 30.53 68.19 32.02L68.17 32.00L68.07 31.90Q69.29 30.76 74.50 25.81L74.47 25.78L74.49 25.79Q75.64 25.84 76.63 25.77L76.65 25.78L78.57 25.46L78.69 25.58Q75.39 28.44 71.09 32.21L71.27 32.40L71.15 32.28Q74.57 35.09 81.04 40.91L80.99 40.86L80.92 40.79Q78.31 40.00 75.34 39.81L75.31 39.79L75.29 39.76Q72.79 37.69 67.92 33.27ZM77.94 42.56L77.90 42.53L77.91 42.53Q82.55 43.30 85.67 45.24L85.75 45.32L85.78 45.34Q84.52 43.98 81.90 41.58L81.81 41.49L81.88 41.56Q82.01 41.54 82.28 41.66L82.39 41.76L82.35 41.73Q80.29 39.74 78.04 37.84L78.09 37.89L73.64 33.96L73.70 34.03Q78.66 29.81 81.09 26.92L80.92 26.74L81.06 26.88Q79.79 26.90 77.31 27.17L77.28 27.13L77.32 27.18Q78.95 25.77 79.64 24.93L79.67 24.96L79.51 24.80Q76.82 25.38 74.34 25.38L74.42 25.46L74.37 25.41Q72.99 26.73 70.25 29.39L70.19 29.34L70.22 29.37Q70.13 23.49 69.14 17.66L69.11 17.64L69.18 17.70Q68.46 17.52 66.98 17.25L66.91 17.19L67.01 17.29Q66.78 16.49 66.33 15.00L66.42 15.10L66.30 14.98Q63.82 14.32 61.57 12.76L61.56 12.75L61.46 12.65Q64.89 19.47 65.23 27.58L65.31 27.66L65.27 27.62Q65.69 35.61 62.68 42.84L62.71 42.87L62.60 42.77Q63.26 42.43 64.59 41.78L64.61 41.80L64.65 41.85Q64.41 42.67 63.77 44.12L63.83 44.18L63.78 44.13Q66.63 43.06 68.77 42.68L68.62 42.53L68.65 42.56Q69.30 40.14 69.80 35.88L69.83 35.91L69.75 35.83Q72.45 38.18 77.89 42.52Z"/><path fill="#d64646" d="M128.95 40.28L128.95 40.29L129.02 40.36Q126.14 36.56 123.51 27.92L123.45 27.85L123.36 27.77Q122.79 25.71 121.99 23.58L121.92 23.51L119.12 32.36L119.11 32.35Q117.36 37.34 114.96 40.58L114.84 40.46L114.79 40.40Q114.11 40.64 112.47 40.79L112.48 40.79L112.35 40.67Q112.51 39.53 112.51 38.27L112.56 38.32L112.60 38.36Q112.55 32.30 109.81 26.17L109.69 26.06L109.73 26.09Q106.58 19.17 100.72 14.19L100.83 14.30L100.70 14.17Q102.96 14.98 105.32 15.51L105.29 15.49L105.29 15.48Q113.94 23.91 115.24 34.87L115.34 34.98L115.25 34.89Q116.89 31.58 118.34 26.21L118.28 26.15L118.40 26.28Q120.27 18.66 120.76 17.25L120.82 17.31L123.13 17.38L123.02 17.27Q123.69 19.27 124.34 21.59L124.48 21.73L125.57 26.02L125.62 26.07Q127.12 31.45 128.53 34.69L128.68 34.84L128.68 34.84Q130.35 23.22 138.27 15.87L138.13 15.73L138.17 15.78Q139.78 15.52 142.75 14.88L142.79 14.92L142.62 14.74Q137.46 19.22 134.42 25.35L134.39 25.33L134.31 25.24Q131.25 31.51 131.25 38.28L131.29 38.32L131.28 38.32Q131.31 39.45 131.39 40.60L131.40 40.61L130.10 40.33L130.12 40.35Q129.66 40.43 129.09 40.43ZM135.25 43.24L135.38 43.37L135.20 43.19Q133.96 39.62 134.07 35.74L134.18 35.85L134.10 35.76Q134.39 24.18 143.76 15.92L143.82 15.99L143.81 15.98Q142.88 16.23 140.94 16.76L141.04 16.86L141.05 16.87Q141.96 15.99 143.87 14.20L143.85 14.19L143.72 14.05Q141.07 14.83 138.13 15.32L138.19 15.38L138.14 15.33Q130.62 22.43 128.72 31.91L128.90 32.09L128.78 31.97Q128.34 30.47 125.49 19.01L125.34 18.86L125.35 18.87Q124.97 18.98 124.02 18.98L124.02 18.99L123.64 17.84L123.73 17.94Q123.53 17.32 123.30 16.82L123.35 16.87L120.43 16.85L120.45 16.87Q119.61 19.30 118.34 24.42L118.33 24.41L118.30 24.39Q116.99 29.47 116.00 31.95L116.17 32.11L116.12 32.06Q114.44 24.06 108.88 17.74L109.03 17.89L109.05 17.91Q108.48 17.76 107.53 17.57L107.55 17.59L107.47 17.51Q106.84 16.76 105.27 15.13L105.25 15.10L105.32 15.17Q101.86 14.30 99.69 13.50L99.64 13.45L99.64 13.45Q105.31 18.13 108.58 24.34L108.62 24.37L108.57 24.32Q112.08 30.99 112.08 38.00L112.09 38.01L112.10 38.02Q112.17 39.65 111.98 41.25L111.86 41.12L111.96 41.23Q112.22 41.26 112.68 41.17L112.62 41.10L112.63 41.12Q113.11 41.05 113.34 41.05L113.29 41.00L113.23 41.96L113.30 42.03Q113.24 42.43 113.32 42.97L113.28 42.93L113.41 43.06Q114.43 42.86 116.72 42.71L116.71 42.71L116.74 42.73Q120.32 37.29 123.07 27.89L123.12 27.95L123.14 27.97Q126.02 36.86 128.99 40.82L128.94 40.77L128.91 40.74Q129.40 40.77 130.24 40.89L130.21 40.86L130.14 40.79Q130.99 41.83 132.06 42.90L132.03 42.87L132.09 42.93Q132.80 42.92 135.20 43.19Z"/></svg>