<svg xmlns="http://www.w3.org/2000/svg" width="150" height="50" viewBox="0,0,150,50"><path fill="#d89b5e" d="M45.35 39.92L45.40 39.97L45.35 39.92Q41.14 39.32 39.31 37.88L39.35 37.91L39.28 37.84Q37.42 36.36 37.00 33.36L37.00 33.36L37.01 33.36Q36.99 33.00 36.65 28.25L36.68 28.28L36.61 28.21Q36.79 27.17 36.71 25.91L36.71 25.91L36.69 25.89Q36.45 20.77 38.66 19.02L38.74 19.11L38.81 19.18Q41.34 16.95 49.11 16.26L49.25 16.41L49.12 16.27Q50.56 16.23 52.19 16.27L52.05 16.13L52.15 16.22Q52.18 16.26 55.15 16.26L55.17 16.28L55.10 16.21Q55.86 16.13 57.57 16.28L57.61 16.32L57.68 16.39Q57.13 17.29 56.11 20.37L56.22 20.48L56.19 20.46Q54.03 19.17 51.02 19.17L51.11 19.26L51.08 19.23Q50.27 19.18 49.47 19.26L49.52 19.30L49.40 19.19Q44.40 19.74 41.89 21.72L41.78 21.62L41.90 21.74Q39.81 23.27 39.66 26.62L39.63 26.58L39.69 26.65Q39.59 27.19 39.62 28.44L39.71 28.53L39.70 28.52Q39.73 33.27 42.13 35.37L42.22 35.46L42.20 35.43Q44.39 37.39 49.37 37.70L49.31 37.63L49.42 37.74Q52.48 37.83 55.48 36.04L55.47 36.03L55.57 36.13Q56.18 38.87 56.79 40.24L56.65 40.11L56.64 40.09Q54.59 40.41 52.96 40.37L53.04 40.45L52.97 40.38Q48.44 40.27 45.32 39.89ZM60.47 43.65L60.47 43.66L60.37 43.56Q58.67 40.63 57.98 38.04L57.98 38.04L58.02 38.09Q57.56 38.31 56.57 38.69L56.60 38.72L56.57 38.69Q56.30 37.97 56.11 37.13L56.00 37.02L55.61 35.29L55.60 35.29Q52.32 37.34 49.20 37.22L49.25 37.27L49.26 37.28Q44.92 37.01 42.59 35.26L42.72 35.39L42.77 35.44Q41.54 33.52 41.62 30.59L41.56 30.53L41.72 30.69Q41.70 26.03 44.17 23.89L44.27 23.99L44.28 24.00Q46.47 22.15 51.15 21.55L51.05 21.45L51.08 21.48Q51.79 21.27 52.52 21.27L52.67 21.42L52.68 21.43Q55.32 21.30 57.41 22.82L57.48 22.89L57.49 22.89Q57.96 20.74 59.18 17.50L59.10 17.43L59.18 17.50Q58.91 17.50 58.36 17.44L58.34 17.42L58.33 17.41Q57.71 17.29 57.44 17.29L57.53 17.38L57.56 17.41Q57.83 16.95 58.28 15.96L58.12 15.80L58.28 15.96Q57.95 15.85 55.45 15.78L55.45 15.77L55.54 15.86Q52.96 15.70 52.32 15.74L52.25 15.68L52.36 15.78Q41.79 16.06 38.32 18.65L38.37 18.70L38.31 18.64Q36.30 20.48 36.30 24.40L36.31 24.40L36.29 24.39Q36.40 25.60 36.51 28.30L36.46 28.25L36.38 28.16Q36.52 31.74 36.75 33.45L36.85 33.55L36.77 33.47Q37.19 36.63 38.79 38.16L38.80 38.16L38.67 38.04Q39.26 38.81 40.51 39.96L40.56 40.00L40.59 40.03Q43.84 41.80 49.10 42.56L48.98 42.45L49.10 42.56Q55.48 43.47 60.47 43.66Z"/><path fill="#d4ee85" d="M72.63 40.15L72.68 40.20L72.72 40.25Q70.83 40.14 69.16 40.71L69.08 40.64L69.19 40.74Q69.63 37.04 69.74 33.91L69.87 34.05L69.68 33.85Q69.97 30.98 69.74 27.33L69.74 27.33L69.69 27.27Q68.20 26.81 67.44 26.43L67.49 26.48L67.11 23.48L67.20 23.57Q67.91 24.17 69.51 24.74L69.40 24.63L69.40 24.62Q69.32 22.64 68.90 19.90L68.84 19.84L68.82 19.82Q71.20 20.60 72.84 20.45L72.73 20.34L72.63 24.96L72.58 24.91Q74.07 24.91 75.40 24.42L75.45 24.47L75.32 24.34Q75.27 25.24 75.04 26.99L75.08 27.04L75.05 27.00Q73.50 27.32 72.47 27.32L72.52 27.37L72.60 27.44Q72.50 29.52 72.50 33.78L72.62 33.90L72.62 33.90Q72.63 38.05 72.70 40.22ZM75.75 23.79L75.72 23.75L75.74 23.78Q75.60 24.01 74.99 24.24L74.92 24.17L75.33 21.42L75.27 21.36Q74.59 21.79 73.18 22.01L73.12 21.95L73.05 21.88Q73.15 21.29 73.30 19.92L73.33 19.95L73.25 19.87Q72.58 19.89 72.01 19.89L72.12 20.00L72.07 19.95Q69.96 19.97 68.32 19.25L68.36 19.29L68.21 19.13Q68.86 21.76 69.13 24.24L69.13 24.24L69.03 24.14Q68.12 23.76 66.59 22.73L66.72 22.86L66.59 22.72Q67.08 24.17 67.30 26.87L67.20 26.76L67.30 26.86Q67.73 27.06 68.91 27.48L68.80 27.38L68.86 27.44Q68.80 27.98 68.84 29.39L68.91 29.46L69.38 29.60L69.48 29.62L69.40 29.53Q69.52 30.84 69.52 32.02L69.52 32.02L69.49 31.99Q69.53 36.98 68.73 41.32L68.66 41.25L68.72 41.30Q68.76 41.05 70.71 40.51L70.74 40.55L70.87 40.68Q70.89 41.34 70.77 42.71L70.72 42.65L70.71 42.64Q71.43 42.49 72.23 42.49L72.30 42.56L72.42 42.68Q73.98 42.53 75.62 43.10L75.64 43.12L75.59 43.08Q74.38 37.48 74.57 29.57L74.59 29.59L76.85 29.07L76.92 29.13Q76.99 28.22 77.07 27.19L77.04 27.16L77.21 25.13L77.32 25.24Q76.68 25.44 75.50 25.89L75.44 25.83L75.58 25.97Q75.85 24.60 75.77 24.26L75.73 24.22L75.66 24.15Q75.69 23.99 75.77 23.80Z"/><path fill="#89a1eb" d="M129.21 30.42L129.21 30.42L129.20 30.41Q129.30 30.01 129.26 29.60L129.19 29.53L129.16 29.49Q129.10 29.13 128.79 28.94L128.73 28.87L128.86 29.01Q128.03 28.33 127.16 28.48L127.19 28.51L127.24 28.57Q126.05 28.44 124.41 29.55L124.61 29.74L124.43 29.56Q123.12 30.57 123.12 31.75L123.06 31.70L123.04 31.67Q123.11 33.00 123.11 36.31L123.19 36.39L123.07 36.27Q123.14 38.93 123.29 40.95L123.24 40.90L123.16 40.82Q121.60 40.97 121.60 40.97L121.57 40.94L121.51 40.88Q120.44 40.76 119.72 40.84L119.83 40.95L119.76 40.88Q120.25 38.43 120.32 36.19L120.30 36.17L120.32 36.19Q120.36 31.43 119.71 30.14L119.75 30.18L119.76 30.18Q119.43 29.55 118.86 29.24L118.96 29.34L118.94 29.32Q118.07 28.57 116.51 28.46L116.53 28.47L116.60 28.54Q114.51 28.25 113.98 29.84L113.91 29.78L113.97 29.84Q113.79 30.31 113.91 30.80L114.01 30.90L113.97 30.86Q114.61 33.60 114.27 36.38L114.27 36.38L114.36 36.47Q113.98 39.21 112.57 41.65L112.61 41.68L112.65 41.73Q111.61 41.86 109.51 42.28L109.53 42.30L109.45 42.22Q112.04 39.06 112.04 34.76L111.92 34.64L111.92 34.64Q111.94 28.79 107.90 24.57L107.92 24.58L108.01 24.67Q108.62 24.83 109.57 25.06L109.61 25.10L111.32 25.47L111.34 25.50Q111.78 26.09 112.66 27.76L112.68 27.78L112.66 27.76Q112.91 25.96 115.35 25.92L115.27 25.85L115.39 25.96Q115.53 25.91 116.52 25.99L116.45 25.92L116.37 25.84Q121.39 26.18 122.53 29.00L122.63 29.09L122.59 29.06Q124.20 26.29 129.23 25.76L129.35 25.88L129.39 25.92Q130.02 25.67 130.89 25.78L130.96 25.85L130.96 25.85Q133.10 25.97 132.95 27.53L132.91 27.50L133.06 27.65Q132.87 28.18 132.60 28.94L132.76 29.09L132.69 29.03Q131.17 31.92 131.39 35.46L131.55 35.62L131.50 35.56Q131.67 39.01 133.58 41.83L133.56 41.81L133.60 41.85Q131.87 41.46 130.05 41.23L130.02 41.20L130.13 41.31Q128.79 38.64 128.60 35.86L128.75 36.02L128.60 35.86Q128.55 33.14 129.19 30.40ZM129.93 41.73L129.85 41.65L129.75 41.55Q130.66 41.81 132.00 42.00L131.87 41.87L131.82 41.83Q132.45 42.65 133.60 44.06L133.50 43.96L133.57 44.03Q136.43 44.53 138.52 45.17L138.56 45.22L138.55 45.20Q133.62 41.37 133.35 34.86L133.38 34.90L133.39 34.90Q133.23 32.72 133.84 30.82L133.88 30.87L133.81 30.80Q134.07 29.95 134.07 29.23L134.04 29.19L134.08 29.24Q134.04 28.28 133.43 27.71L133.47 27.75L133.36 27.60L133.37 27.61Q133.47 27.14 133.39 26.64L133.46 26.72L133.36 26.62Q133.25 26.08 132.79 25.82L132.83 25.86L132.84 25.87Q132.07 25.28 131.19 25.24L131.28 25.33L131.19 25.25Q128.54 25.33 125.87 26.28L125.90 26.31L125.86 26.27Q123.76 26.84 122.58 28.24L122.70 28.36L122.67 28.33Q121.12 25.87 116.28 25.52L116.26 25.51L116.33 25.57Q115.55 25.44 115.13 25.44L115.06 25.37L115.16 25.47Q113.06 25.42 112.45 26.68L112.44 26.67L112.49 26.72Q112.21 26.25 111.52 25.18L111.42 25.07L111.40 25.06Q109.03 24.63 107.05 23.98L106.98 23.91L107.02 23.95Q111.75 28.41 111.75 34.69L111.66 34.61L111.73 34.67Q111.68 39.34 108.82 42.81L108.80 42.78L108.88 42.87Q109.37 42.75 109.87 42.68L109.79 42.60L110.64 42.31L110.71 42.37Q110.07 43.49 108.97 44.70L109.01 44.75L109.03 44.77Q110.61 44.41 113.74 43.80L113.67 43.74L113.69 43.76Q116.47 39.76 116.47 34.84L116.32 34.70L116.36 34.73Q116.40 33.98 116.32 33.14L116.26 33.08L116.23 33.05Q116.30 32.44 117.29 31.64L117.29 31.63L117.16 31.55L117.17 31.55Q117.69 31.01 118.87 30.90L118.89 30.91L118.86 30.89Q119.48 31.09 119.79 31.09L119.76 31.06L119.85 31.34L119.89 31.38Q120.05 33.98 119.94 36.34L119.97 36.37L119.95 36.35Q119.92 38.72 119.43 41.38L119.32 41.28L119.36 41.32Q120.37 41.30 120.37 41.30L120.37 41.30L120.40 41.33Q121.75 41.23 121.41 41.23L121.38 41.21L121.39 41.22Q121.43 41.75 121.39 42.20L121.37 42.19L121.37 42.18Q121.46 42.77 121.46 43.27L121.39 43.20L123.87 43.20L123.88 43.21Q125.15 43.22 126.40 43.30L126.35 43.25L126.36 43.25Q124.81 39.54 125.00 33.60L125.02 33.61L125.14 33.73Q125.11 32.56 126.29 31.80L126.35 31.86L126.22 31.74Q127.08 30.88 128.34 30.69L128.52 30.88L128.75 30.80L128.70 30.75Q128.39 32.79 128.39 34.77L128.27 34.66L128.31 34.70Q128.23 38.39 129.75 41.55ZM124.37 30.15L124.41 29.96L124.42 30.32L124.37 30.15Z"/><path fill="#b2ea7a" d="M89.20 15.95L89.14 15.89L89.17 15.92Q91.06 20.78 91.63 25.96L91.55 25.87L91.69 26.01Q95.31 21.79 101.21 16.96L101.21 16.96L101.21 16.96Q104.36 16.61 106.99 15.81L106.92 15.74L100.45 21.46L100.52 21.53Q96.95 24.31 94.09 27.16L94.27 27.34L94.25 27.32Q102.11 36.36 107.17 41.08L107.29 41.20L107.18 41.09Q104.10 40.18 101.78 40.03L101.73 39.98L101.78 40.03Q96.04 34.67 91.74 28.85L91.64 28.75L91.72 28.82Q91.91 35.53 90.04 40.86L90.04 40.85L90.05 40.86Q89.72 40.80 89.23 40.99L89.31 41.07L89.16 41.11L89.16 41.11Q88.94 41.12 86.38 42.03L86.43 42.08L86.46 42.11Q89.44 35.57 89.10 28.11L89.13 28.14L88.97 27.98Q88.68 20.68 85.14 14.17L85.18 14.21L85.81 14.58L86.21 14.87L86.16 14.78L86.12 14.74Q86.96 15.24 89.17 15.92ZM89.47 15.65L89.41 15.60L89.38 15.56Q87.03 14.92 84.40 13.40L84.55 13.55L84.46 13.46Q88.84 20.85 88.84 29.80L88.72 29.67L88.68 29.63Q88.80 36.76 85.83 42.81L85.83 42.81L87.73 41.81L87.82 41.90Q87.52 43.01 86.83 44.31L86.75 44.23L86.80 44.28Q89.07 43.50 91.01 43.08L90.89 42.96L90.92 42.75L91.01 42.85Q91.28 42.82 91.86 42.67L91.91 42.72L91.79 42.60Q93.56 36.79 93.67 32.00L93.62 31.94L93.62 31.94Q95.70 34.44 97.52 36.31L97.58 36.36L97.57 36.35Q98.65 37.35 101.65 40.32L101.74 40.40L101.83 40.49L101.84 40.51Q102.73 41.21 104.59 42.80L104.63 42.84L104.66 42.87Q108.46 43.52 111.93 45.23L111.91 45.21L112.05 45.35Q102.62 36.64 96.38 29.22L96.42 29.26L96.37 29.22Q100.86 25.02 109.62 16.42L109.66 16.47L109.55 16.35Q107.04 17.54 105.03 17.92L105.08 17.97L105.07 17.96Q106.20 16.89 108.53 14.87L108.60 14.95L108.54 14.89Q104.38 16.25 101.03 16.44L101.18 16.59L101.18 16.59Q98.13 18.68 93.26 23.36L93.30 23.40L93.31 23.41Q92.98 20.87 92.41 18.32L92.44 18.36L92.26 18.17Q91.09 18.03 90.10 17.69L90.22 17.81L90.11 17.70Q89.87 16.93 89.30 15.48Z"/><path fill="#987ced" d="M31.84 34.63L31.99 34.78L32.00 34.79Q31.99 38.36 28.83 39.65L28.81 39.63L28.66 39.49Q26.76 40.29 22.35 40.44L22.35 40.45L22.44 40.53Q17.67 40.68 15.43 39.50L15.43 39.50L15.40 39.47Q13.63 38.24 13.79 34.89L13.74 34.85L13.80 34.90Q13.75 34.21 13.94 32.23L13.86 32.14L14.05 32.33Q14.12 30.69 14.12 29.70L14.02 29.60L14.02 29.60Q14.10 21.68 9.91 14.26L9.92 14.27L9.88 14.23Q10.95 14.81 13.92 15.87L13.92 15.87L14.06 16.01Q16.80 22.59 16.80 29.98L16.79 29.97L16.91 30.09Q16.89 30.68 16.80 31.86L16.82 31.89L16.86 31.93Q16.65 33.00 16.65 33.61L16.66 33.61L16.65 33.60Q16.73 35.96 18.29 36.95L18.33 36.99L18.20 36.87Q19.87 37.70 22.84 37.70L22.92 37.78L22.84 37.69Q25.49 37.72 27.13 36.54L27.10 36.51L27.09 36.51Q29.09 35.30 28.93 32.79L28.93 32.78L28.88 32.74Q28.68 31.24 28.68 29.91L28.77 30.00L28.73 29.95Q28.73 22.91 31.12 16.40L31.19 16.47L33.31 15.84L33.27 15.80Q34.20 15.48 35.31 15.03L35.32 15.03L35.41 15.13Q31.59 22.16 31.59 29.74L31.57 29.72L31.71 29.85Q31.65 30.63 31.78 32.27L31.88 32.37L31.77 32.25Q31.90 33.89 31.90 34.69ZM34.00 35.53L34.02 35.55L34.12 35.65Q33.21 30.67 33.93 25.57L33.81 25.44L33.85 25.48Q34.69 20.38 37.09 16.01L36.97 15.89L37.08 16.00Q36.46 16.30 35.02 16.94L35.02 16.95L35.04 16.97Q35.42 16.13 36.22 14.57L36.19 14.54L36.06 14.41Q32.69 15.72 30.79 16.07L30.85 16.13L30.73 16.01Q28.47 22.62 28.47 29.89L28.45 29.87L28.46 29.88Q28.50 31.29 28.58 32.70L28.56 32.68L28.52 32.64Q28.56 34.93 26.77 36.15L26.77 36.14L26.89 36.26Q25.47 37.39 22.95 37.43L22.80 37.28L22.86 37.34Q20.00 37.30 18.56 36.54L18.66 36.63L18.72 36.69Q18.55 36.11 18.48 35.65L18.54 35.72L18.39 35.57Q18.46 35.19 18.58 34.69L18.50 34.61L18.63 34.75Q18.73 32.29 18.73 29.97L18.84 30.08L18.70 29.94Q18.80 24.21 17.27 18.31L17.29 18.33L17.25 18.28Q16.58 18.23 15.17 17.89L15.05 17.76L15.18 17.89Q14.76 16.56 14.30 15.64L14.17 15.51L14.23 15.57Q11.45 14.74 9.06 13.37L9.16 13.47L9.14 13.46Q13.67 20.95 13.67 29.67L13.68 29.68L13.76 29.76Q13.71 31.35 13.56 33.06L13.59 33.09L13.67 33.17Q13.42 35.55 13.50 36.73L13.46 36.69L13.44 36.67Q13.56 38.58 14.82 39.72L14.78 39.69L14.80 39.70Q15.76 42.15 20.40 42.53L20.52 42.65L20.48 42.61Q22.62 42.81 24.75 42.88L24.71 42.84L24.70 42.83Q30.01 42.96 32.79 42.01L32.81 42.03L32.88 42.11Q34.42 41.17 34.42 39.11L34.44 39.13L34.53 39.23Q34.59 38.14 34.13 35.66Z"/></svg>